<?xml version="1.0" encoding="UTF-8" standalone="no"?>
<svg
   class="svglite"
   width="124.44094pt"
   height="144pt"
   viewBox="0 0 124.44094 144"
   version="1.1"
   id="svg28"
   sodipodi:docname="sticker_generate-labels.svg"
   xml:space="preserve"
   inkscape:version="1.4.2 (ebf0e940, 2025-05-08)"
   inkscape:export-filename="sticker_generate-labels.png"
   inkscape:export-xdpi="300"
   inkscape:export-ydpi="300"
   xmlns:inkscape="http://www.inkscape.org/namespaces/inkscape"
   xmlns:sodipodi="http://sodipodi.sourceforge.net/DTD/sodipodi-0.dtd"
   xmlns:xlink="http://www.w3.org/1999/xlink"
   xmlns="http://www.w3.org/2000/svg"
   xmlns:svg="http://www.w3.org/2000/svg"
   xmlns:rdf="http://www.w3.org/1999/02/22-rdf-syntax-ns#"
   xmlns:cc="http://creativecommons.org/ns#"><sodipodi:namedview
     id="namedview28"
     pagecolor="#ffffff"
     bordercolor="#000000"
     borderopacity="0.25"
     inkscape:showpageshadow="2"
     inkscape:pageopacity="0.0"
     inkscape:pagecheckerboard="true"
     inkscape:deskcolor="#d1d1d1"
     inkscape:document-units="pt"
     showguides="true"
     inkscape:zoom="4"
     inkscape:cx="93.375"
     inkscape:cy="100"
     inkscape:window-width="1920"
     inkscape:window-height="1027"
     inkscape:window-x="0"
     inkscape:window-y="25"
     inkscape:window-maximized="0"
     inkscape:current-layer="svg28"
     showgrid="false"><sodipodi:guide
       position="-7.8190046,107.83711"
       orientation="0,-1"
       id="guide28"
       inkscape:locked="false" /><sodipodi:guide
       position="62.220501,146.0625"
       orientation="-1,0"
       id="guide29"
       inkscape:locked="false"
       inkscape:label=""
       inkscape:color="rgb(0,134,229)" /><inkscape:grid
       id="grid29"
       units="pt"
       originx="0"
       originy="0"
       spacingx="1"
       spacingy="1"
       empcolor="#0099e5"
       empopacity="0.30196078"
       color="#0099e5"
       opacity="0.14902"
       empspacing="5"
       dotted="false"
       gridanglex="30"
       gridanglez="30"
       visible="false" /><sodipodi:guide
       position="0,144"
       orientation="0,165.92125"
       id="guide30"
       inkscape:locked="false" /><sodipodi:guide
       position="124.44095,144"
       orientation="192,0"
       id="guide31"
       inkscape:locked="false" /><sodipodi:guide
       position="124.44095,4.2632565e-14"
       orientation="0,-165.92125"
       id="guide32"
       inkscape:locked="false" /><sodipodi:guide
       position="0,4.2632565e-14"
       orientation="-192,0"
       id="guide33"
       inkscape:locked="false" /></sodipodi:namedview><defs
     id="defs1"><pattern
       inkscape:collect="always"
       xlink:href="#pattern27"
       preserveAspectRatio="xMidYMid"
       id="pattern40"
       patternTransform="matrix(0.8,0,0,0.8,72.233337,65.822683)"
       x="-30"
       y="12"
       width="125.11999512"
       height="51.20000153" /><style
       type="text/css"
       id="style1"><![CDATA[
    .svglite line, .svglite polyline, .svglite polygon, .svglite path, .svglite rect, .svglite circle {
      fill: none;
      stroke: #000000;
      stroke-linecap: round;
      stroke-linejoin: round;
      stroke-miterlimit: 10.00;
    }
    .svglite text {
      white-space: pre;
    }
  ]]></style><pattern
       patternUnits="userSpaceOnUse"
       width="104.26666"
       height="42.666667"
       patternTransform="translate(72.233337,65.822683)"
       preserveAspectRatio="xMidYMid"
       id="pattern27"
       inkscape:label="label"><rect
         style="fill:none;fill-opacity:1;stroke:#000000;stroke-width:2.66667;stroke-linejoin:round;stroke-dasharray:none;stroke-opacity:0.199063"
         id="rect1"
         width="101.6"
         height="40"
         x="1.3333334"
         y="1.3333334"
         inkscape:label="label" /></pattern></defs><defs
     id="defs2"><clipPath
       id="cpMC4wMHwxMjQuNDR8MC4wMHwxNDQuMDA="><rect
         x="0"
         y="0"
         width="124.44"
         height="144"
         id="rect2" /></clipPath></defs><defs
     id="defs3"><clipPath
       id="cpMC4wMHwxMjQuNDR8MC4xNHwxNDMuODY="><rect
         x="0"
         y="0.14"
         width="124.44"
         height="143.71001"
         id="rect3" /></clipPath></defs><defs
     id="defs5"><clipPath
       id="cpMC4wMHwxMjQuNDR8MC4xNHwxNDQuMDA="><rect
         x="0"
         y="0.14"
         width="124.44"
         height="143.85001"
         id="rect5" /></clipPath></defs><polygon
     points="62.15,1.55 1.08,36.81 1.08,107.33 62.15,142.59 123.22,107.33 123.22,36.81 "
     style="display:inline;fill:#ffffff;stroke:none;stroke-width:2.56;stroke-linecap:butt"
     id="polygon6"
     inkscape:label="background white"
     sodipodi:insensitive="true" /><polygon
     points="62.15,142.59 123.22,107.33 123.22,36.81 62.15,1.55 1.08,36.81 1.08,107.33 "
     style="display:inline;mix-blend-mode:normal;fill:url(#pattern40);fill-opacity:1;stroke:none;stroke-width:2.56;stroke-linecap:butt;stroke-opacity:0.199063;opacity:0.74291939"
     id="polygon27"
     inkscape:label="background pattern" /><rect
     style="display:none;fill:url(#pattern27);stroke:none"
     width="104.26666"
     height="42.666668"
     x="72.233337"
     y="65.822685"
     id="rect27"
     transform="scale(0.75)"
     sodipodi:insensitive="true" /><polygon
     points="62.15,142.59 123.22,107.33 123.22,36.81 62.15,1.55 1.08,36.81 1.08,107.33 "
     style="display:inline;stroke:#ffe030;stroke-width:4;stroke-linecap:butt;stroke-dasharray:none;stroke-opacity:1"
     id="polygon7"
     inkscape:label="hexagon"
     transform="matrix(0.98112713,0,0,0.98112713,1.2434177,1.0396614)"
     sodipodi:insensitive="true" /><text
     xml:space="preserve"
     style="font-style:normal;font-variant:normal;font-weight:bold;font-stretch:normal;font-size:15px;font-family:'Fira Sans';-inkscape-font-specification:'Fira Sans, Bold';font-variant-ligatures:normal;font-variant-caps:normal;font-variant-numeric:normal;font-variant-east-asian:normal;white-space:pre;display:none;opacity:1;fill:#000000;stroke-width:0.75"
     x="62.63847"
     y="65.367012"
     id="text28"
     inkscape:label="generate-labels editable"
     sodipodi:insensitive="true"><tspan
       sodipodi:role="line"
       id="tspan28"
       style="font-style:normal;font-variant:normal;font-weight:bold;font-stretch:normal;font-size:22px;font-family:'Fira Sans';-inkscape-font-specification:'Fira Sans, Bold';font-variant-ligatures:normal;font-variant-caps:normal;font-variant-numeric:normal;font-variant-east-asian:normal;text-align:center;text-anchor:middle;display:inline;stroke-width:0.75"
       x="0"
       y="0">generate-</tspan><tspan
       sodipodi:role="line"
       style="font-style:normal;font-variant:normal;font-weight:bold;font-stretch:normal;font-size:22px;font-family:'Fira Sans';-inkscape-font-specification:'Fira Sans, Bold';font-variant-ligatures:normal;font-variant-caps:normal;font-variant-numeric:normal;font-variant-east-asian:normal;text-align:center;text-anchor:middle;display:inline;stroke-width:0.75"
       x="0"
       y="0"
       id="tspan1">labels</tspan></text><g
     id="text42"
     style="font-weight:bold;font-size:15px;font-family:'Fira Sans';-inkscape-font-specification:'Fira Sans, Bold';white-space:pre;stroke-width:0.75;fill:#000000;fill-opacity:1;stroke:none"
     inkscape:label="generate-labels"
     aria-label="generate-&#10;labels"><path
       style="font-size:22px;text-align:center;text-anchor:middle;display:inline;fill:#000000;fill-opacity:1;stroke:none"
       d="m 24.754447,51.793012 c -1.408,0.836 -2.904,1.584 -5.5,1.518 -3.058,0 -5.126,1.628 -5.126,4.268 0,1.518 0.594,2.552 2.09,3.344 -0.836,0.528 -1.386,1.386 -1.386,2.244 0,1.254 1.034,2.31 3.586,2.31 h 1.694 c 1.166,0 1.672,0.462 1.672,1.144 0,0.748 -0.484,1.32 -2.53,1.32 -2.112,0 -2.552,-0.44 -2.552,-1.452 h -3.124 c 0,2.31 1.166,3.762 5.588,3.762 4.004,0 6.116,-1.474 6.116,-3.872 0,-1.958 -1.738,-3.388 -4.466,-3.388 h -1.76 c -1.122,0 -1.276,-0.352 -1.276,-0.704 0,-0.264 0.132,-0.528 0.374,-0.66 0.418,0.088 0.858,0.132 1.342,0.132 3.036,0 4.906,-1.65 4.906,-3.916 0,-1.518 -0.726,-2.376 -2.2,-3.014 1.474,0 2.552,-0.132 3.366,-0.462 z m -5.412,3.806 c 1.166,0 1.76,0.594 1.76,1.892 0,1.342 -0.616,2.024 -1.76,2.024 -1.056,0 -1.76,-0.704 -1.76,-1.98 0,-1.21 0.682,-1.936 1.76,-1.936 z m 17.577996,3.696 c 0,-3.784 -2.046,-5.984 -5.39,-5.984 -3.542,0 -5.456,2.772 -5.456,6.27 0,3.652 1.98,6.16 5.874,6.16 1.892,0 3.388,-0.704 4.554,-1.628 l -1.43,-1.936 c -1.012,0.704 -1.848,1.034 -2.794,1.034 -1.43,0 -2.42,-0.572 -2.64,-2.662 h 7.216 c 0.044,-0.352 0.066,-0.88 0.066,-1.254 z m -3.41,-0.836 h -3.894 c 0.176,-2.112 0.836,-2.838 2.002,-2.838 1.386,0 1.87,1.1 1.892,2.684 z m 12.232019,-5.148 c -1.474,0 -2.596,0.616 -3.564,1.782 l -0.264,-1.408 h -3.014 v 11.682 h 3.476 v -7.986 c 0.594,-0.968 1.254,-1.518 2.024,-1.518 0.682,0 1.1,0.33 1.1,1.562 v 7.942 h 3.476 v -8.536 c 0,-2.222 -1.21,-3.52 -3.234,-3.52 z m 15.971999,5.984 c 0,-3.784 -2.046,-5.984 -5.39,-5.984 -3.542,0 -5.456,2.772 -5.456,6.27 0,3.652 1.98,6.16 5.874,6.16 1.892,0 3.388,-0.704 4.554,-1.628 l -1.43,-1.936 c -1.012,0.704 -1.848,1.034 -2.794,1.034 -1.43,0 -2.42,-0.572 -2.64,-2.662 h 7.216 c 0.044,-0.352 0.066,-0.88 0.066,-1.254 z m -3.41,-0.836 h -3.894 c 0.176,-2.112 0.836,-2.838 2.002,-2.838 1.386,0 1.87,1.1 1.892,2.684 z m 11.726019,-5.104 c -1.342,0 -2.486,0.968 -3.014,2.596 l -0.308,-2.266 h -3.014 v 11.682 h 3.476 v -5.874 c 0.396,-1.738 0.99,-2.772 2.42,-2.772 0.374,0 0.682,0.066 1.056,0.154 l 0.55,-3.366 c -0.396,-0.11 -0.726,-0.154 -1.166,-0.154 z m 11.154012,8.624 v -4.532 c 0,-2.706 -1.452,-4.136 -4.84,-4.136 -1.32,0 -2.926,0.308 -4.4,0.858 l 0.792,2.288 c 1.166,-0.396 2.31,-0.616 3.058,-0.616 1.43,0 1.98,0.418 1.98,1.804 v 0.506 h -1.188 c -3.52,0 -5.478,1.386 -5.478,3.938 0,2.134 1.474,3.652 3.806,3.652 1.386,0 2.684,-0.462 3.52,-1.738 0.55,1.144 1.452,1.562 2.816,1.672 l 0.726,-2.266 c -0.55,-0.198 -0.792,-0.528 -0.792,-1.43 z m -5.258,1.276 c -0.858,0 -1.342,-0.55 -1.342,-1.474 0,-1.166 0.748,-1.716 2.332,-1.716 h 0.858 v 2.09 c -0.418,0.682 -1.056,1.1 -1.848,1.1 z m 14.18999,-0.638 c -0.462,0.264 -0.858,0.374 -1.254,0.374 -0.726,0 -1.1,-0.396 -1.1,-1.518 v -5.368 h 2.31 l 0.374,-2.42 h -2.684 v -2.926 l -3.476,0.396 v 2.53 h -1.65 v 2.42 h 1.65 v 5.412 c 0,2.75 1.254,4.202 3.828,4.224 1.056,0 2.288,-0.308 3.168,-0.924 z m 12.121998,-3.322 c 0,-3.784 -2.046,-5.984 -5.389998,-5.984 -3.542,0 -5.456,2.772 -5.456,6.27 0,3.652 1.98,6.16 5.874,6.16 1.892,0 3.387998,-0.704 4.553998,-1.628 l -1.43,-1.936 c -1.011998,0.704 -1.847998,1.034 -2.793998,1.034 -1.43,0 -2.42,-0.572 -2.64,-2.662 h 7.215998 c 0.044,-0.352 0.066,-0.88 0.066,-1.254 z m -3.409998,-0.836 h -3.894 c 0.176,-2.112 0.836,-2.838 2.002,-2.838 1.386,0 1.87,1.1 1.892,2.684 z m 5.016018,1.364 h 7.018 v -2.684 h -7.018 z"
       id="path45" /><path
       style="font-size:22px;text-align:center;text-anchor:middle;display:inline;fill:#000000;fill-opacity:1;stroke:none"
       d="m 36.612482,93.241012 c 0.858,0 1.606,-0.176 2.112,-0.396 l -0.66,-2.464 c -0.154,0.066 -0.352,0.11 -0.572,0.11 -0.418,0 -0.616,-0.242 -0.616,-0.726 v -13.596 l -3.476,0.374 v 13.354 c 0,2.134 1.188,3.344 3.212,3.344 z m 12.694002,-3.762 v -4.532 c 0,-2.706 -1.452,-4.136 -4.84,-4.136 -1.32,0 -2.926,0.308 -4.4,0.858 l 0.792,2.288 c 1.166,-0.396 2.31,-0.616 3.058,-0.616 1.43,0 1.98,0.418 1.98,1.804 v 0.506 h -1.188 c -3.52,0 -5.478,1.386 -5.478,3.938 0,2.134 1.474,3.652 3.806,3.652 1.386,0 2.684,-0.462 3.52,-1.738 0.55,1.144 1.452,1.562 2.816,1.672 l 0.726,-2.266 c -0.55,-0.198 -0.792,-0.528 -0.792,-1.43 z m -5.258,1.276 c -0.858,0 -1.342,-0.55 -1.342,-1.474 0,-1.166 0.748,-1.716 2.332,-1.716 h 0.858 v 2.09 c -0.418,0.682 -1.056,1.1 -1.848,1.1 z m 14.62999,-9.944 c -1.298,0 -2.442,0.594 -3.146,1.562 v -6.204 l -3.476,0.374 v 16.324 h 3.08 l 0.176,-1.122 c 0.704,0.924 1.76,1.496 3.058,1.496 2.904,0 4.642,-2.596 4.642,-6.204 0,-3.916 -1.54,-6.226 -4.334,-6.226 z m -1.32,9.9 c -0.748,0 -1.386,-0.418 -1.826,-1.122 v -4.862 c 0.506,-0.858 1.188,-1.364 1.98,-1.364 1.1,0 1.892,0.704 1.892,3.674 0,2.728 -0.836,3.674 -2.046,3.674 z m 17.907991,-3.916 c 0,-3.784 -2.046,-5.984 -5.39,-5.984 -3.542,0 -5.456,2.772 -5.456,6.27 0,3.652 1.98,6.16 5.874,6.16 1.892,0 3.388,-0.704 4.554,-1.628 l -1.43,-1.936 c -1.012,0.704 -1.848,1.034 -2.794,1.034 -1.43,0 -2.42,-0.572 -2.64,-2.662 h 7.216 c 0.044,-0.352 0.066,-0.88 0.066,-1.254 z m -3.41,-0.836 h -3.894 c 0.176,-2.112 0.836,-2.838 2.002,-2.838 1.386,0 1.87,1.1 1.892,2.684 z m 8.448019,7.282 c 0.858,0 1.606,-0.176 2.112,-0.396 l -0.66,-2.464 c -0.154,0.066 -0.352,0.11 -0.572,0.11 -0.418,0 -0.616,-0.242 -0.616,-0.726 v -13.596 l -3.476,0.374 v 13.354 c 0,2.134 1.188,3.344 3.212,3.344 z m 7.677983,-12.43 c -2.948,0 -4.774,1.562 -4.774,3.564 0,1.804 1.144,2.992 3.454,3.652 2.112,0.594 2.464,0.836 2.464,1.628 0,0.704 -0.638,1.1 -1.694,1.1 -1.144,0 -2.222,-0.462 -3.102,-1.144 l -1.694,1.892 c 1.144,1.034 2.86,1.738 4.884,1.738 2.904,0 5.192,-1.43 5.192,-3.85 0,-2.09 -1.298,-3.058 -3.608,-3.718 -2.09,-0.616 -2.398,-0.88 -2.398,-1.496 0,-0.528 0.462,-0.88 1.408,-0.88 1.012,0 1.98,0.33 2.882,0.902 l 1.276,-1.958 c -1.078,-0.88 -2.596,-1.43 -4.29,-1.43 z"
       id="path46" /></g><text
     xml:space="preserve"
     style="font-style:normal;font-variant:normal;font-weight:600;font-stretch:normal;font-size:7px;font-family:Raleway;-inkscape-font-specification:'Raleway Semi-Bold';text-align:center;text-anchor:middle;white-space:pre;display:none;opacity:1;fill:#000000;stroke-width:0.75"
     x="-15.644328"
     y="151.59846"
     id="text29"
     transform="rotate(-30)"
     inkscape:label="glebsite"
     sodipodi:insensitive="true"><tspan
       sodipodi:role="line"
       id="tspan29"
       style="font-style:normal;font-variant:normal;font-weight:500;font-stretch:normal;font-size:6px;font-family:'Fira Sans';-inkscape-font-specification:'Fira Sans, Medium';font-variant-ligatures:normal;font-variant-caps:normal;font-variant-numeric:normal;font-variant-east-asian:normal;text-align:start;text-anchor:start;stroke-width:0.75"
       x="0"
       y="0">github.com/gl-eb/glebrt</tspan></text><metadata
     id="metadata33"><rdf:RDF><cc:Work
         rdf:about=""><cc:license
           rdf:resource="http://creativecommons.org/publicdomain/zero/1.0/" /></cc:Work><cc:License
         rdf:about="http://creativecommons.org/publicdomain/zero/1.0/"><cc:permits
           rdf:resource="http://creativecommons.org/ns#Reproduction" /><cc:permits
           rdf:resource="http://creativecommons.org/ns#Distribution" /><cc:permits
           rdf:resource="http://creativecommons.org/ns#DerivativeWorks" /></cc:License></rdf:RDF></metadata></svg>
